<?xml version="1.0" encoding="UTF-8" standalone="no"?>
<!-- Created with Inkscape (http://www.inkscape.org/) -->

<svg
   width="46.974728mm"
   height="27.024124mm"
   viewBox="0 0 46.974728 27.024124"
   version="1.1"
   id="svg1"
   inkscape:export-filename="bitmap.svg"
   inkscape:export-xdpi="96"
   inkscape:export-ydpi="96"
   inkscape:version="1.3 (0e150ed, 2023-07-21)"
   sodipodi:docname="drawing.svg"
   xmlns:inkscape="http://www.inkscape.org/namespaces/inkscape"
   xmlns:sodipodi="http://sodipodi.sourceforge.net/DTD/sodipodi-0.dtd"
   xmlns="http://www.w3.org/2000/svg"
   xmlns:svg="http://www.w3.org/2000/svg">
  <sodipodi:namedview
     id="namedview1"
     pagecolor="#ffffff"
     bordercolor="#000000"
     borderopacity="0.25"
     inkscape:showpageshadow="2"
     inkscape:pageopacity="0.0"
     inkscape:pagecheckerboard="0"
     inkscape:deskcolor="#d1d1d1"
     inkscape:document-units="mm"
     inkscape:zoom="4.0718557"
     inkscape:cx="254.55224"
     inkscape:cy="236.6243"
     inkscape:window-width="1920"
     inkscape:window-height="1080"
     inkscape:window-x="0"
     inkscape:window-y="0"
     inkscape:window-maximized="0"
     inkscape:current-layer="layer1" />
  <defs
     id="defs1" />
  <g
     inkscape:label="Layer 1"
     inkscape:groupmode="layer"
     id="layer1"
     transform="translate(-52.425,-23.282939)">
    <path
       style="font-weight:600;font-size:38.1px;line-height:0;font-family:Quicksand;-inkscape-font-specification:'Quicksand Semi-Bold';stroke-width:0.26534"
       d="m 56.425789,25.267685 c 0,-0.562001 -0.178217,-1.022232 -0.533817,-1.37987 -0.3556,-0.383182 -0.825017,-0.574815 -1.409216,-0.574815 -0.6096,0 -1.105215,0.191633 -1.486215,0.574815 -0.380999,0.357638 -0.571541,0.817869 -0.571541,1.37987 v 22.914149 c 0,0.562002 0.177701,1.034628 0.533301,1.417811 0.380999,0.357636 0.863774,0.536355 1.447973,0.536355 0.6096,0 1.092374,-0.178719 1.447974,-0.536355 0.3556,-0.383183 0.546141,-0.855809 0.571541,-1.417811 z"
       id="path5"
       inkscape:export-filename="./krisinoteLogo.svg"
       inkscape:export-xdpi="96"
       inkscape:export-ydpi="96" />
    <path
       style="font-weight:600;font-size:38.1px;line-height:0;font-family:Quicksand;-inkscape-font-specification:'Quicksand Semi-Bold';stroke-width:0.26534"
       d="m 81.420716,25.36009 c 0,-0.562001 -0.178217,-1.022232 -0.533817,-1.37987 -0.3556,-0.383182 -0.825017,-0.574815 -1.409216,-0.574815 -0.6096,0 -1.105215,0.191633 -1.486215,0.574815 -0.380999,0.357638 -0.571541,0.817869 -0.571541,1.37987 v 22.914149 c 0,0.562002 0.177701,1.034628 0.533301,1.417811 0.380999,0.357636 0.863774,0.536355 1.447973,0.536355 0.6096,0 1.092374,-0.178719 1.447974,-0.536355 0.3556,-0.383183 0.546141,-0.855809 0.571541,-1.417811 z"
       id="path5-4" />
    <path
       style="font-weight:600;font-size:38.1px;line-height:0;font-family:Quicksand;-inkscape-font-specification:'Quicksand Semi-Bold';stroke-width:0.26028"
       d="m 63.236715,34.469217 c -0.337796,-0.435668 -0.753559,-0.684249 -1.244277,-0.747055 -0.506099,-0.08258 -1.099855,0.143583 -1.552229,0.495372 -0.472043,0.367083 -0.740428,0.813918 -0.804714,1.340061 -0.07967,0.506363 0.04992,0.977482 0.388342,1.412667 l 9.731907,12.551584 c 0.338421,0.435186 0.760624,0.694158 1.266724,0.776745 0.510384,0.04751 0.99184,-0.10481 1.444215,-0.456598 0.472043,-0.367082 0.853127,-0.88808 0.913128,-1.379146 0.04461,-0.51085 -0.09243,-0.991566 -0.411189,-1.442047 z"
       id="path5-0" />
    <path
       style="font-weight:600;font-size:38.1px;line-height:0;font-family:Quicksand;-inkscape-font-specification:'Quicksand Semi-Bold';stroke-width:0.26028"
       d="m 56.84299,41.437598 c -0.404781,0.374253 -0.753559,0.684249 -1.244277,0.747055 -0.506099,0.08258 -1.099855,-0.143583 -1.552229,-0.495372 -0.472043,-0.367083 -0.740428,-0.813918 -0.804714,-1.340061 -0.07967,-0.506363 0.04992,-0.977482 0.388342,-1.412667 l 16.072563,-14.86041 c 0.338421,-0.435186 0.760624,-0.694158 1.266724,-0.776745 0.510384,-0.04751 0.99184,0.10481 1.444215,0.456598 0.472043,0.367082 0.853127,0.88808 0.913128,1.379146 0.04461,0.51085 -0.09243,0.991566 -0.411189,1.442047 z"
       id="path5-0-3" />
    <path
       style="font-weight:600;font-size:38.1px;line-height:0;font-family:Quicksand;-inkscape-font-specification:'Quicksand Semi-Bold';stroke-width:0.26534"
       d="m 99.399728,25.312389 c 0,-0.562001 -0.178217,-1.022232 -0.533817,-1.37987 -0.3556,-0.383182 -0.825017,-0.574815 -1.409216,-0.574815 -0.6096,0 -1.105215,0.191633 -1.486215,0.574815 -0.380999,0.357638 -0.571541,0.817869 -0.571541,1.37987 v 22.914149 c 0,0.562002 0.177701,1.034628 0.533301,1.417811 0.380999,0.357636 0.863774,0.536355 1.447973,0.536355 0.6096,0 1.092374,-0.178719 1.447974,-0.536355 0.3556,-0.383183 0.546141,-0.855809 0.571541,-1.417811 z"
       id="path5-9" />
    <path
       style="font-weight:600;font-size:38.1px;line-height:0;font-family:Quicksand;-inkscape-font-specification:'Quicksand Semi-Bold';stroke-width:0.26534"
       d="m 81.033418,24.059179 c -0.346475,-0.442492 -0.772397,-0.692909 -1.27303,-0.753921 -0.516435,-0.08109 -1.0038,0.05875 -1.462799,0.420143 -0.478957,0.377111 -0.749808,0.834273 -0.812113,1.371029 -0.07811,0.516687 0.0569,0.996159 0.404561,1.437718 l 17.856232,22.880918 c 0.345759,0.443054 0.820272,0.678601 1.336709,0.759683 0.520587,0.0453 1.010458,-0.112939 1.469457,-0.474337 0.478958,-0.377111 0.747709,-0.816182 0.80586,-1.317154 0.04235,-0.521044 -0.100324,-1.010255 -0.428033,-1.467528 z"
       id="path5-5" />
  </g>
</svg>
